<svg data-v-fde0c5aa="" xmlns="http://www.w3.org/2000/svg" viewBox="0 0 300 300" class="iconAbove"><!----><defs data-v-fde0c5aa=""><!----></defs><rect data-v-fde0c5aa="" fill="transparent" x="0" y="0" width="300px" height="300px" class="logo-background-square"></rect><defs data-v-fde0c5aa=""><!----></defs><g data-v-fde0c5aa="" id="0c23b624-cb0a-4e0b-ad8c-09e2a027f821" fill="#2e3034" transform="matrix(6.121212121212121,0,0,6.121212121212121,56.71273086287759,169.95696946346396)"><path d="M3.54 9.58C5.18 10.05 5.75 10.54 5.75 11.68C5.75 13.06 5.15 13.52 3.84 13.52C2.58 13.52 1.95 12.94 1.90 11.90L0.60 11.90C0.62 13.52 1.62 14.71 3.78 14.71C5.95 14.71 7.08 13.79 7.08 11.66C7.08 9.73 5.85 8.95 4.00 8.43C2.63 8.04 2.10 7.59 2.10 6.51C2.10 5.39 2.69 4.89 3.85 4.89C4.86 4.89 5.59 5.33 5.68 6.44L7 6.44C6.85 4.38 5.50 3.71 3.82 3.71C1.86 3.71 0.80 4.70 0.80 6.55C0.80 8.47 1.89 9.10 3.54 9.58ZM10.04 5.05L14.21 5.05L14.21 3.88L8.71 3.88L8.71 14.55L14.35 14.55L14.35 13.37L10.04 13.37L10.04 9.66L13.69 9.66L13.69 8.48L10.04 8.48ZM23.23 14.55L19.63 9.06L22.85 3.88L21.31 3.88L18.54 8.53L17.43 8.53L17.43 3.88L16.10 3.88L16.10 14.55L17.43 14.55L17.43 9.72L18.55 9.72L21.62 14.55ZM29.88 13.34L25.91 13.34L25.91 3.88L24.58 3.88L24.58 14.55L29.88 14.55Z"></path></g><defs data-v-fde0c5aa=""><!----></defs><g data-v-fde0c5aa="" id="1883045c-6c80-4ac4-ac44-7589d4014a7e" stroke="none" fill="#488eff" transform="matrix(4.208333333333333,0,0,4.208333333333333,82.66666666666667,40)"><path d="M9.382 8.675h13.943v13.943L32 31.293V0H.707zM22.618 23.325H8.675V9.382L0 .707V32h31.293z"></path></g><!----></svg>